# AST/ASF file generated using VICON BodyLanguage
# -----------------------------------------------
:version 1.10
:name VICON
:units
  mass 1.0
  length 0.45
  angle deg
:documentation
   .ast/.asf automatically generated from VICON data using
   VICON BodyBuilder and BodyLanguage model FoxedUp or BRILLIANT.MOD
:root
   order TX TY TZ RX RY RZ
   axis XYZ
   position 0 0 0  
   orientation 0 0 0 
:bonedata
  begin
     id 1 
     name lhipjoint
     direction 0.64773 -0.699417 0.302095 
     length 2.48597 
     axis 0 0 0  XYZ
  end
  begin
     id 2 
     name lfemur
     direction 0.34202 -0.939693 0  
     length 6.71947  
     axis 0 0 20  XYZ
    dof rx ry rz
    limits (-160.0 20.0)
           (-70.0 70.0)
           (-60.0 70.0)
  end
  begin
     id 3 
     name ltibia
     direction 0.34202 -0.939693 0   
     length 8.08777   
     axis 0 0 20   XYZ
    dof rx
    limits (-10.0 170.0)
  end
  begin
     id 4 
     name lfoot
     direction 0.0808503 -0.222134 0.971658   
     length 2.08264   
     axis -90 7.62852e-016 20   XYZ
    dof rx rz
    limits (-45.0 90.0)
           (-70.0 20.0)
  end
  begin
     id 5 
     name ltoes
     direction 1.53502e-011 -4.22007e-011 1   
     length 1.04662   
     axis -90 7.62852e-016 20   XYZ
    dof rx
    limits (-90.0 20.0)
  end
  begin
     id 6 
     name rhipjoint
     direction -0.610924 -0.726792 0.313919   
     length 2.39233  
     axis 0 0 0  XYZ 
  end
  begin
     id 7 
     name rfemur
     direction -0.34202 -0.939693 0   
     length 6.96955   
     axis 0 0 -20   XYZ
    dof rx ry rz
    limits (-160.0 20.0)
           (-70.0 70.0)
           (-70.0 60.0)
  end
  begin
     id 8 
     name rtibia
     direction -0.34202 -0.939693 0   
     length 8.19584   
     axis 0 0 -20   XYZ
    dof rx
    limits (-10.0 170.0)
 end
 begin
     id 9 
     name rfoot
     direction -0.077777 -0.213691 0.9738   
     length 2.07539  
     axis -90 -7.62852e-016 -20   XYZ
    dof rx rz
    limits (-45.0 90.0)
           (-20.0 70.0)
  end
  begin
     id 10 
     name rtoes
     direction -1.53558e-011 -4.22006e-011 1   
     length 1.04381   
     axis -90 -7.62852e-016 -20   XYZ
    dof rx
    limits (-90.0 20.0)
  end
  begin
     id 11 
     name lowerback
     direction -0.00971646 0.996074 0.0879841   
     length 1.67643   
     axis 0 0 0   XYZ
    dof rx ry rz
    limits (-20.0 45.0)
           (-30.0 30.0)
           (-30.0 30.0)
  end
  begin
     id 12 
     name upperback
     direction 0.0127391 0.991676 0.128127   
     length 1.63741   
     axis 0 0 0   XYZ
    dof rx ry rz
    limits (-20.0 45.0)
           (-30.0 30.0)
           (-30.0 30.0)
  end
  begin
     id 13 
     name thorax
     direction 0.0167583 0.996049 0.0872067   
     length 1.65931   
     axis 0 0 0   XYZ
    dof rx ry rz
    limits (-20.0 45.0)
           (-30.0 30.0)
           (-30.0 30.0)
  end
  begin
     id 14 
     name lowerneck
     direction -0.0317829 0.998312 0.0486079   
     length 1.79021   
     axis 0 0 0   XYZ
    dof rx ry rz
    limits (-20.0 45.0)
           (-30.0 30.0)
           (-30.0 30.0)
  end
  begin
     id 15 
     name upperneck
     direction 0.0896851 0.972452 -0.215159   
     length 1.78797   
     axis 0 0 0   XYZ
    dof rx ry rz
    limits (-20.0 45.0)
           (-30.0 30.0)
           (-30.0 30.0)
  end
  begin
     id 16
     name head
     direction 0.0310949 0.996503 -0.0775582  
     length 1.81549  
     axis 0 0 0   XYZ
    dof rx ry rz
    limits (-20.0 45.0)
           (-30.0 30.0)
           (-30.0 30.0)
  end
  begin
     id 17 
     name lclavicle
     direction 0.853638 0.502051 -0.138733  
     length 3.31627  
     axis 0 0 0   XYZ
    dof ry rz
    limits (-20.0 10.0)
           (0.0 20.0)
  end
  begin
     id 18 
     name lhumerus
     direction 1 -4.48962e-011 -1.41788e-018   
     length 5.54893   
     axis 180 -30 -90   XYZ
    dof rx ry rz
    limits (-60.0 90.0)
           (-90.0 90.0)
           (-90.0 90.0)
  end
  begin
     id 19
     name lradius
     direction 1 -4.48962e-011 -4.95754e-027   
     length 3.02898   
     axis 180 -30 -90   XYZ
    dof rx
    limits (-10.0 170.0)
  end
  begin
     id 20
     name lwrist
     direction 1 -4.48952e-011 -1.03764e-026   
     length 1.51449   
     axis 9.09556e-015 90 90   XYZ
    dof ry
    limits (-180.0 0.0)
 end
  begin
     id 21 
     name lhand
     direction 1 -4.4902e-011 -2.07528e-026   
     length 0.640951   
     axis 1.3242e-014 90 90   XYZ
    dof rx rz
    limits (-90.0 90.0)
           (-45.0 45.0)
  end
  begin
     id 22 
     name lfingers
     direction 1 -4.49014e-011 -4.15056e-026   
     length 0.516751   
     axis 2.64841e-014 90 90   XYZ
    dof rx
    limits (0.0 90.0)
  end
  begin
     id 23
     name lthumb
     direction 0.707107 -6.35008e-011 0.707107   
     length 0.741954   
     axis -90 45 2.85299e-015   XYZ
    dof rx rz
    limits (-45.0 45.0)
           (-45.0 45.0)
  end
  begin
     id 24 
     name rclavicle
     direction -0.888531 0.455324 -0.0565039   
     length 3.20126  
     axis 0 0 0   XYZ 
    dof ry rz
    limits (-10.0 20.0)
           (-20.0 0.0)
  end
  begin
     id 25 
     name rhumerus
     direction -1 -4.48946e-011 -8.98298e-028  
     length 5.3519   
     axis 180 30 90   XYZ
    dof rx ry rz
    limits (-90.0 60.0)
           (-90.0 90.0)
           (-90.0 90.0)
  end
  begin
     id 26 
     name rradius
     direction -1 -4.4899e-011 -3.18779e-027   
     length 3.02531   
     axis 180 30 90   XYZ
    dof rx
    limits (-10.0 170.0)
  end
  begin
     id 27 
     name rwrist
     direction -1 -4.4897e-011 -1.03764e-026   
     length 1.51266   
     axis 9.09556e-015 -90 -90   XYZ
    dof ry
    limits (-180.0 0.0)
  end
  begin
     id 28
     name rhand
     direction -1 -4.48941e-011 -2.07528e-026   
     length 0.78389   
     axis 1.3242e-014 -90 -90   XYZ
    dof rx rz
    limits (-90.0 90.0)
           (-45.0 45.0)
  end
  begin
     id 29
     name rfingers
     direction -1 -4.49012e-011 -4.15056e-026   
     length 0.631992   
     axis 2.64841e-014 -90 -90   XYZ
    dof rx
    limits (0.0 90.0)
  end
  begin
     id 30
     name rthumb
     direction -0.707107 -6.3496e-011 0.707107   
     length 0.907418   
     axis -90 -45 -2.85299e-015   XYZ
    dof rx rz
    limits (-45.0 45.0)
           (-45.0 45.0)
  end
:hierarchy
  begin
    root lhipjoint rhipjoint lowerback
    lhipjoint lfemur
    lfemur ltibia
    ltibia lfoot
    lfoot ltoes
    rhipjoint rfemur
    rfemur rtibia
    rtibia rfoot
    rfoot rtoes
    lowerback upperback
    upperback thorax
    thorax lowerneck lclavicle rclavicle
    lowerneck upperneck
    upperneck head
    lclavicle lhumerus
    lhumerus lradius
    lradius lwrist
    lwrist lhand lthumb
    lhand lfingers
    rclavicle rhumerus
    rhumerus rradius
    rradius rwrist
    rwrist rhand rthumb
    rhand rfingers
  end

#!OML:ASF E:\Style3\Style3.ASF
:FULLY-SPECIFIED
:DEGREES
266
root 0.914954 17.8107 0.5042 -164.547 72.0268 -182.939
lowerback -7.10712 -1.41318 -3.78511
upperback -10.9504 -1.21594 -3.72664
thorax -7.54315 -0.146373 -1.87235
lowerneck -1.62088 -10.5081 -9.83864
upperneck -12.6834 -10.4239 34.3045
head -0.474164 -5.2695 12.6813
rclavicle 6.18717e-015 8.74653e-015
rhumerus 105.951 -0.107919 -85.4334
rradius 14.8132
rwrist 91.1464
rhand -41.725 34.3597
rfingers 7.12502
rthumb -14.6302 4.89576
lclavicle -1.94809e-014 7.95139e-015
lhumerus 67.1659 -35.3488 48.3458
lradius 113.394
lwrist 88.3565
lhand -20.3487 25.2976
lfingers 7.12502
lthumb 6.00318 55.1925
rfemur -11.0122 6.5819 15.5722
rtibia 11.1807
rfoot -17.217 -30.1127
rtoes -16.657
lfemur -17.3039 -23.1639 -10.0569
ltibia 7.44931
lfoot -6.19569 23.6149
ltoes -27.1867
267
root 0.915064 17.8101 0.5076 -164.778 72.1262 -183.173
lowerback -7.07232 -1.39384 -3.83145
upperback -10.8946 -1.19667 -3.79323
thorax -7.5022 -0.138904 -1.91531
lowerneck -1.5342 -10.4992 -9.78823
upperneck -12.8549 -10.373 34.2118
head -0.56173 -5.26556 12.6526
rclavicle 6.18717e-015 8.74653e-015
rhumerus 105.951 -0.107919 -85.4334
rradius 14.8132
rwrist 91.1464
rhand -41.725 34.3597
rfingers 7.12502
rthumb -14.6302 4.89576
lclavicle -4.6118e-014 1.27222e-014
lhumerus 67.2319 -35.4146 48.4347
lradius 113.339
lwrist 88.2121
lhand -20.2831 25.2089
lfingers 7.12502
lthumb 6.06649 55.102
rfemur -11.0802 6.38724 15.497
rtibia 11.3003
rfoot -17.1867 -29.8356
rtoes -16.947
lfemur -17.1486 -23.2217 -10.1427
ltibia 7.24384
lfoot -6.09676 23.7467
ltoes -27.3452
268
root 0.913092 17.8092 0.512479 -164.996 72.1764 -183.395
lowerback -6.96213 -1.36413 -3.87737
upperback -10.8329 -1.17029 -3.85446
thorax -7.49748 -0.128261 -1.95217
lowerneck -1.69304 -10.5175 -9.95024
upperneck -12.7648 -10.4309 34.2704
head -0.475258 -5.2705 12.6869
rclavicle 6.18717e-015 8.74653e-015
rhumerus 105.951 -0.107919 -85.4334
rradius 14.8132
rwrist 91.1464
rhand -41.725 34.3597
rfingers 7.12502
rthumb -14.6302 4.89576
lclavicle 3.53837e-014 -4.77083e-015
lhumerus 67.3545 -35.4866 48.4945
lradius 113.342
lwrist 88.1345
lhand -20.2208 25.1632
lfingers 7.12502
lthumb 6.12661 55.0546
rfemur -11.17 6.22052 15.4298
rtibia 11.4395
rfoot -17.1675 -29.584
rtoes -17.2872
lfemur -17.0333 -23.321 -10.1955
ltibia 7.04318
lfoot -5.98779 23.8872
ltoes -27.2552
269
root 0.910896 17.8089 0.519852 -164.951 72.2153 -183.359
lowerback -6.90488 -1.3838 -3.92415
upperback -10.8103 -1.2024 -3.87276
thorax -7.50511 -0.142749 -1.94474
lowerneck -1.74683 -10.5236 -10.0655
upperneck -12.5585 -10.5056 34.3387
head -0.376082 -5.28822 12.7165
rclavicle 6.18717e-015 8.74653e-015
rhumerus 105.951 -0.107919 -85.4334
rradius 14.8132
rwrist 91.1464
rhand -41.725 34.3597
rfingers 7.12502
rthumb -14.6302 4.89576
lclavicle 7.15625e-015 5.56597e-014
lhumerus 67.307 -35.5628 48.627
lradius 113.322
lwrist 88.1186
lhand -20.1799 25.2978
lfingers 7.12502
lthumb 6.16616 55.1881
rfemur -11.2817 6.16492 15.4562
rtibia 11.5825
rfoot -17.3267 -29.4288
rtoes -17.0801
lfemur -16.9463 -23.4009 -10.1405
ltibia 6.84212
lfoot -5.82712 24.0047
ltoes -27.3563
270
root 0.906603 17.8094 0.528116 -164.871 72.2624 -183.311
lowerback -6.90103 -1.46859 -3.99158
upperback -10.8359 -1.31341 -3.89058
thorax -7.53616 -0.191668 -1.92751
lowerneck -1.5512 -10.4867 -9.96266
upperneck -12.4142 -10.4956 34.359
head -0.383075 -5.29643 12.713
rclavicle 6.18717e-015 8.74653e-015
rhumerus 105.951 -0.107919 -85.4334
rradius 14.8132
rwrist 91.1464
rhand -41.725 34.3597
rfingers 7.12502
rthumb -14.6302 4.89576
lclavicle -1.21259e-014 4.77083e-014
lhumerus 67.059 -35.6228 48.7676
lradius 113.291
lwrist 88.1637
lhand -20.2183 25.5761
lfingers 7.12502
lthumb 6.12906 55.4675
rfemur -11.4027 6.16488 15.4863
rtibia 11.6708
rfoot -17.355 -29.344
rtoes -17.0232
lfemur -16.9559 -23.462 -10.054
ltibia 6.72811
lfoot -5.74451 24.137
ltoes -27.2479
271
root 0.902961 17.8115 0.536632 -164.882 72.3309 -183.353
lowerback -6.85577 -1.50018 -4.0765
upperback -10.7837 -1.36113 -3.90598
thorax -7.50337 -0.212602 -1.89502
lowerneck -1.5063 -10.4505 -9.75567
upperneck -12.5119 -10.4201 34.1888
head -0.4683 -5.27648 12.6211
rclavicle 6.18717e-015 8.74653e-015
rhumerus 105.951 -0.107919 -85.4334
rradius 14.8132
rwrist 91.1464
rhand -41.725 34.3597
rfingers 7.12502
rthumb -14.6302 4.89576
lclavicle 4.96962e-014 -2.70347e-014
lhumerus 67.0594 -35.6941 48.7409
lradius 113.336
lwrist 88.1538
lhand -20.2971 25.5719
lfingers 7.12502
lthumb 6.05301 55.4654
rfemur -11.4955 6.21665 15.4725
rtibia 11.7179
rfoot -17.3707 -29.2784
rtoes -17.1307
lfemur -16.9816 -23.5116 -10.0057
ltibia 6.68969
lfoot -5.75568 24.2354
ltoes -27.3616
272
root 0.900047 17.8141 0.543309 -164.537 72.3669 -183.027
lowerback -6.80501 -1.51316 -4.0018
upperback -10.7163 -1.3895 -3.87963
thorax -7.45794 -0.236566 -1.90618
lowerneck -1.5289 -10.4203 -9.75632
upperneck -12.6177 -10.3542 34.1327
head -0.513368 -5.25043 12.6089
rclavicle 6.18717e-015 8.74653e-015
rhumerus 105.951 -0.107919 -85.4334
rradius 14.8132
rwrist 91.1464
rhand -41.725 34.3597
rfingers 7.12502
rthumb -14.6302 4.89576
lclavicle 1.98785e-015 7.95139e-015
lhumerus 67.1637 -35.7777 48.6237
lradius 113.335
lwrist 87.9876
lhand -20.2873 25.2494
lfingers 7.12502
lthumb 6.06245 55.1426
rfemur -11.5973 6.25589 15.5849
rtibia 11.7846
rfoot -17.4176 -29.2033
rtoes -16.8952
lfemur -16.9948 -23.5603 -9.83286
ltibia 6.61047
lfoot -5.70825 24.3526
ltoes -27.3181
273
root 0.896892 17.8143 0.549601 -164.38 72.4501 -182.892
lowerback -6.76522 -1.51923 -3.99171
upperback -10.6791 -1.40461 -3.89485
thorax -7.44024 -0.24807 -1.92656
lowerneck -1.52618 -10.4098 -9.77053
upperneck -12.6443 -10.3342 34.1472
head -0.523385 -5.24324 12.6208
rclavicle 6.18717e-015 8.74653e-015
rhumerus 105.951 -0.107919 -85.4334
rradius 14.8132
rwrist 91.1464
rhand -41.725 34.3597
rfingers 7.12502
rthumb -14.6302 4.89576
lclavicle 7.53394e-014 5.24792e-014
lhumerus 67.1952 -35.8898 48.5868
lradius 113.285
lwrist 87.8231
lhand -20.1441 25.204
lfingers 7.12502
lthumb 6.2007 55.0933
rfemur -11.7422 6.23512 15.6273
rtibia 11.9203
rfoot -17.3143 -29.1316
rtoes -16.9205
lfemur -16.9132 -23.5848 -9.74982
ltibia 6.3918
lfoot -5.54571 24.4697
ltoes -27.2535
274
root 0.894315 17.8175 0.556006 -164.23 72.5161 -182.776
lowerback -6.72905 -1.49195 -3.94433
upperback -10.5945 -1.37843 -3.95079
thorax -7.36965 -0.245868 -2.00944
lowerneck -1.73195 -10.473 -9.7909
upperneck -12.6108 -10.4278 34.2118
head -0.4457 -5.26819 12.626
rclavicle 6.18717e-015 8.74653e-015
rhumerus 105.951 -0.107919 -85.4334
rradius 14.8132
rwrist 91.1464
rhand -41.725 34.3597
rfingers 7.12502
rthumb -14.6302 4.89576
lclavicle -2.14687e-014 -1.59028e-015
lhumerus 67.3815 -35.9703 48.514
lradius 113.254
lwrist 87.8332
lhand -20.087 25.3549
lfingers 7.12502
lthumb 6.25581 55.2425
rfemur -11.9007 6.13925 15.667
rtibia 12.0428
rfoot -17.4039 -28.9312
rtoes -16.1344
lfemur -16.8549 -23.6272 -9.66809
ltibia 6.18983
lfoot -5.41255 24.5961
ltoes -27.0702
275
root 0.890858 17.8227 0.563541 -164.186 72.6051 -182.715
lowerback -6.62789 -1.48532 -3.98368
upperback -10.5056 -1.38342 -3.95969
thorax -7.3285 -0.251508 -1.9936
lowerneck -1.8884 -10.5185 -9.8442
upperneck -12.5794 -10.5063 34.2309
head -0.383174 -5.29093 12.6242
rclavicle 6.18717e-015 8.74653e-015
rhumerus 105.951 -0.107919 -85.4334
rradius 14.8132
rwrist 91.1464
rhand -41.725 34.3597
rfingers 7.12502
rthumb -14.6302 4.89576
lclavicle 2.18663e-015 0
lhumerus 67.5079 -36.017 48.5091
lradius 113.233
lwrist 88.0291
lhand -20.1145 25.4521
lfingers 7.12502
lthumb 6.22924 55.3405
rfemur -11.9881 6.22817 15.6624
rtibia 12.1392
rfoot -18.0342 -28.6031
rtoes -13.3645
lfemur -16.7678 -23.6603 -9.62828
ltibia 6.04252
lfoot -5.25681 24.7674
ltoes -27.3395
276
root 0.886456 17.8232 0.570117 -164.199 72.692 -182.686
lowerback -6.52531 -1.49959 -4.04463
upperback -10.4394 -1.41458 -3.95919
thorax -7.31281 -0.266865 -1.95648
lowerneck -1.88053 -10.5245 -9.93144
upperneck -12.5632 -10.5272 34.2812
head -0.363759 -5.30073 12.6582
rclavicle 6.18717e-015 8.74653e-015
rhumerus 105.951 -0.107919 -85.4334
rradius 14.8132
rwrist 91.1464
rhand -41.725 34.3597
rfingers 7.12502
rthumb -14.6302 4.89576
lclavicle -1.59028e-015 -3.33958e-014
lhumerus 67.5749 -36.0572 48.5447
lradius 113.21
lwrist 88.2534
lhand -20.1081 25.774
lfingers 7.12502
lthumb 6.23544 55.6622
rfemur -12.0143 6.31045 15.6625
rtibia 12.203
rfoot -18.0823 -28.523
rtoes -13.3637
lfemur -16.6694 -23.705 -9.61466
ltibia 5.94999
lfoot -5.25447 24.8859
ltoes -27.3804
